<?xml version="1.0" encoding="UTF-8"?><svg id="Layer_2" xmlns="http://www.w3.org/2000/svg" viewBox="0 0 1225.96 316.84"><defs><style>.cls-1{fill:#080505;}</style></defs><g id="Layer_1-2"><g><path class="cls-1" d="M372.22,222.97c-2.7,24.14,14.43,40.23,41.82,40.23,18.12,0,31.51-6.51,45.9-19.92h68.47c-33.5,46.36-81.31,73.56-128.43,73.56-64.44,0-105.46-49.42-88.89-112.64,16.07-61.3,81.48-114.18,147.13-114.18s104.86,50.19,87.58,116.09c-1.61,6.13-3.32,11.11-6.03,16.86h-167.55Zm113.55-42.91c.49-21.84-15.83-36.4-41.61-36.4-24.17,0-48.72,13.79-59.89,36.4h101.5Z"/><path class="cls-1" d="M716.4,179.29c-4.44-19.92-19.15-29.88-42.11-29.88-30.61,0-57.88,24.14-65.71,54.02-8.13,31.03,7.99,54.02,39.01,54.02,22.56,0,40.87-9.96,55.76-28.35h68.07c-27.25,53.26-84.22,87.74-141.41,87.74-66.05,0-105.06-50.96-88.59-113.79,16.67-63.6,82.39-113.03,146.83-113.03,58.8,0,97.49,35.25,95.82,89.27h-67.67Z"/><path class="cls-1" d="M876.13,309.36l-36.42-102.3h-.81l-26.81,102.3h-67.49L818.92,25.84h67.49l-35.18,137.07h0l79.43-66.19h79.34l-108.68,93.49,50.53,119.16h-75.72Z"/><path class="cls-1" d="M1097.01,309.36l6.03-22.99h-.81c-14.59,18.77-44.18,30.27-73.58,30.27-66.06,0-99.02-49.42-82.15-113.79,16.47-62.83,77.65-113.41,141.7-113.41,27.39,0,50.05,10.34,57.82,29.88h.81l5.93-22.61h73.22l-55.73,212.64h-73.22Zm27.92-106.51c7.83-29.88-11.21-54.02-42.63-54.02s-61.1,24.14-69.14,54.79c-7.73,29.5,10.51,53.64,41.52,53.64s62.21-23.76,70.24-54.41Z"/><path class="cls-1" d="M131.3,96.78l9.14-28.14h130.92L289.13,0H82.79L0,310H75.41l37.48-142.99h102.92c-11.58,11.62-20.3,25.75-24.29,41l-26.73,101.99h75.41l34.84-132.94c2.62-9.99,13.26-18.1,23.77-18.1h39.04l16.24-62.25-222.78,.06Z"/></g></g></svg>